<svg preserveAspectRatio="none" width="100%" height="100%" overflow="visible" style="display: block;" viewBox="0 0 24 24" fill="none" xmlns="http://www.w3.org/2000/svg">
<g id="icon-arrow" opacity="0.2">
<path id="Primary" d="M19.1381 6.06005C19.1381 5.39714 18.5998 4.85885 17.9369 4.85885L9.45163 4.85885C8.78871 4.85885 8.25043 5.39714 8.25043 6.06005C8.25043 6.72296 8.78871 7.26125 9.45163 7.26125L15.0413 7.26125L5.21164 17.0909C4.7423 17.5603 4.7423 18.3186 5.21164 18.788C5.68098 19.2573 6.43935 19.2573 6.90869 18.788L16.7384 8.9583L16.7384 14.548C16.7384 15.2109 17.2766 15.7492 17.9396 15.7492C18.6025 15.7492 19.1408 15.2109 19.1408 14.548L19.1408 6.0627L19.1381 6.06005Z" fill="var(--fill-0, black)"/>
</g>
</svg>
